<svg xmlns="http://www.w3.org/2000/svg" width="446" height="528" viewBox="0 0 446 528" fill="none">
  <path fill-rule="evenodd" clip-rule="evenodd" d="M203.008 143.437H131.509L160.683 0H229.75L203.008 143.437ZM99.8272 309.453L117.126 225.43H188.674L178.359 275.531C174.427 294.63 189.014 312.528 208.514 312.528H249.757H329.169H420.101V379.113H313.799H234.387H162.659H159.469L158.875 382.247L131.29 527.692H59.7183L87.0304 383.683L87.897 379.113H83.2461H0V312.528H96.0546H99.1942L99.8272 309.453ZM326.03 304.824H254.482L264.797 254.723C268.729 235.624 254.142 217.726 234.642 217.726H193.399H113.987H25.617V151.14H126.795H206.208H280.497H283.644L284.272 148.056L314.385 0H383.452L356.123 146.583L355.274 151.14H359.91H445.718V217.726H347.101H343.962L343.329 220.801L326.03 304.824ZM210.859 527.692L237.576 386.817H309.148L282.431 527.692H210.859Z" fill="white"/>
</svg>